<?xml version="1.0" encoding="utf-8"?>
<!-- Generator: Adobe Illustrator 17.0.0, SVG Export Plug-In . SVG Version: 6.00 Build 0)  -->
<!DOCTYPE svg PUBLIC "-//W3C//DTD SVG 1.1//EN" "http://www.w3.org/Graphics/SVG/1.1/DTD/svg11.dtd">
<svg width="100%" height="100%" viewBox="0 0 118 50" preserveAspectRatio="none"
version="1.1" id="图层_1" xmlns="http://www.w3.org/2000/svg" xmlns:xlink="http://www.w3.org/1999/xlink"  enable-background="new 0 0 118 50" xml:space="preserve">
<g>
	<g>
		<g id="XMLID_159_">
			<path id="XMLID_195_" fill="#FFFFFF" d="M25.251,7.294c0,0,0.778,0.45,0.698,2.181s0.579,16.224,0.579,16.224v7.658l1.359,1.606
				l-0.692,3.294l-1.943,6.094l-6.157,2.554l-4.796,0.287l-5.105-1.276l-5.6-4.982l0.7-10.787l1.606-13.258l0.535-2.315l0.251-0.569
				l1.02-2.633l0.191-1.75l0.762-1.709l2.676-0.741L25.251,7.294z"/>
			<g id="XMLID_160_">
				<path id="XMLID_194_" fill="#D70C18" d="M27.194,14.562c-0.045,0-0.061,0.003-0.088,0.003
					C27.137,14.583,27.194,14.562,27.194,14.562z"/>
				<path id="XMLID_188_" fill="#D70C18" d="M29.325,37.779c0,0-0.379-0.168-0.338-0.378c0.289-1.444-0.253-0.971-0.823-1.943
					c-0.091-0.156,0.49-0.365,0.487-0.592c-0.003-0.041-0.249-0.201-0.359-0.462c-0.169-0.403,0.21-0.323,0.485-0.76
					c0.15-0.236,0.305-0.176,0.443-0.36c0.176-0.235,0.168-0.608,0.212-0.802c0.108-0.483-0.562-0.191-0.781-0.191
					c-0.405,0,0.359-0.822-0.212-0.611c-0.104,0.038-0.423-0.024-0.569-0.062c-0.121-0.034-0.263-0.355-0.423-0.381
					c-0.379-0.062,0.334-0.376,0.339-0.464c0.104-2.576,1.22-1.435,0.675-3.23c-0.1-0.328,0.429-0.272,0.442-0.527
					c0.113-1.914-0.654-0.402-1.33-0.992c-0.289-0.254-0.317-0.382-0.02-0.486c0.296-0.103,0.473-0.173,0.604-0.231
					c0.148,0.019,0.317-0.003,0.409-0.17c0.066-0.121,0.287-0.72,0-0.697c-0.506,0.042-0.539-0.27-0.338-0.402
					c0.141-0.091-0.224,0.065-0.442-0.062c-0.08-0.045,0.072-0.227-0.022-0.275c-0.195-0.099-0.258-0.071-0.211-0.422
					c0.036-0.257-0.157-1.014-0.084-1.309c0.087-0.356,0.15-0.182,0.169-0.464c0.008-0.141-0.324-0.055-0.316-0.169
					c0.008-0.121-0.093-0.591,0.233-0.639c0.251-0.036,0.278-0.365,0.167-0.396c0,0-0.328,0.061-0.485-0.275
					c-0.066-0.141-0.054-0.24-0.106-0.4c-0.169-0.526-0.337-1.118,0.233-1.309c0.337-0.113,0.259-0.373,0.147-0.653
					c-0.107-0.267-0.056-0.278-0.127-0.402c-0.057-0.097-0.441-0.217-0.422-0.274c0.062-0.19-0.226-0.25-0.085-0.338
					c0.316-0.192,0.485-0.055,0.528-0.084c0.252-0.168,0.134-0.328,0.127-0.401c-0.012-0.132-0.606-0.117-0.697-0.254
					c-0.107-0.158-0.221-0.819,0.022-0.949c0.186-0.098,0.188,0.125,0.422,0.127c0.394,0.005,0.507,0.19,0.507-0.211
					c0-0.157-0.994-0.293-0.679-0.314c-0.019-0.011-0.03-0.036,0.003-0.109c0.172-0.38,0.208-1.018,0.021-1.055
					c-0.317-0.064-0.649-0.495-0.423-0.697c0.077-0.067,0.317-0.085,0.402-0.189c0.337-0.423,0.069-1.169-0.211-1.225
					c-0.685-0.137-0.228-0.775-0.38-1.119c-0.068-0.15,0-0.738-0.57-0.696c-0.013,0-0.026-0.062-0.04-0.147
					c-0.049,0.172-0.125,0.359-0.283,0.559c-0.464,0.592-1.009,0.333-3.186-0.401c-0.34-0.114-0.641-0.259-0.932-0.269
					c-4.683-0.153-3.206,0.417-4.599,0.607c-1.654,0.225-1.667,0.04-1.647-1.182c0.018-1.086,0.887-0.316,1.753-0.233
					c1.052,0.103,0.295-0.062,2.384-0.38c2.09-0.317,4.391,0.233,5.805,0.169c0.367-0.017,0.565,0.048,0.673,0.135
					c0.02-0.291,0.072-0.509,0.177-0.442c0.337,0.211,0.543-0.444,0.317-0.444c-0.422,0-0.422-0.549,0.105-0.527
					c0.346,0.013,0.168-0.146,0.231-0.718c0.037-0.335,0.402-0.442,0.043-0.949c-0.098-0.138-0.011-0.549-0.232-0.549
					c-0.172,0-0.362-0.031-0.449,0.078c-0.121,0.155-0.023,0.168-0.227,0.429c-0.183,0.235-0.655,0.25-0.928,0.146
					c-0.676-0.252,0.253-1.055-0.423-1.055c-0.531,0-1.013-0.442-2.469-1.962c-0.154-0.16-0.253-0.061-0.613-0.189
					c-0.287-0.104-0.393-0.381-0.57-0.423c-0.213-0.051-0.611,0.025-0.738-0.126c-0.125-0.146-0.257-0.312-0.169-0.464
					c0.253-0.438-0.437-0.34-0.697-0.043c-0.047,0.053-0.362,0.043-0.433,0.089c-0.176,0.108-0.21,0.175-0.455,0.377
					c-0.108,0.089-0.439,0.022-0.802,0.084c-0.124,0.022-0.221,0.359-0.359,0.359c-0.328,0.002-0.436-0.357-0.506-0.297
					c-0.125,0.108-0.322-0.038-0.339,0.297c-0.012,0.232-0.273,0.432-0.591,0.464c-0.259,0.025-0.568-0.105-0.696-0.064
					c-0.461,0.149-0.127,0.716-0.633,0.486c-0.148-0.066,0.27-0.564,0.084-0.634c-1.393-0.507-0.928,0.719-0.928,0.719
					s-0.548,0.317-0.339,0.97c0.041,0.127-0.284-0.012-0.337,0.127c-0.394,1.013,0.253,0.267-0.591,0.886
					c-1.126,0.827-0.845-1.118-1.901-0.338c-0.362,0.268-0.328,0.295-0.442,0.507c-0.13,0.24,0.345,0.638-0.106,0.718
					C9.674,5.877,9.07,5.801,8.746,5.801c-0.353,0.002-0.16,0.395-0.401,0.422C7.918,6.27,7.933,6.233,7.795,6.349
					C7.621,6.498,7.562,6.695,7.731,6.942C7.823,7.074,8.639,6.898,8.83,6.92c0.663,0.075,0.764,0.619,0.106,0.655
					C8.729,7.586,8.328,7.457,7.922,7.49C6.868,7.575,7.45,7.313,7.057,8.27C6.876,8.713,7.502,8.407,8.429,8.143
					c0.072-0.02,0.079,0.086,0.049,0.254l0.198-0.283c0,0,0.747-0.024,1.815-0.381c0.57-0.189,1.035-0.359,2.469,0.149
					c1.304,0.459,1.9,0.38,1.837,0.844c-0.035,0.265-0.374,0.804-1.899,1.245c-1.604,0.464-3.778,0.528-3.906,0.443
					c-0.175-0.115-0.878,0.062-1.162-0.408C7.65,9.991,7.478,10.054,7.437,10.17c-0.12,0.342,0.176,1.035-0.233,0.886
					c-0.201-0.072-0.76,0.423-0.169,0.634c0.209,0.075-0.115,0.637,0.127,0.591c0.075-0.015,0.104,0.046,0.111,0.132
					c0.069-0.125,0.116-0.205,0.116-0.205s0.732,0.013,1.52-0.402c0.802-0.422,1.421-0.498,1.963-0.549
					c0.465-0.041,2.069-0.026,2.66,0.086c0.591,0.111,1.302-0.086,1.329,0.252c0.028,0.338-0.317,0.858-0.626,1.225
					c-0.309,0.365-1.301,0.654-1.443,0.654c-0.141,0-0.661,0.704-0.549,1.013c0.114,0.309,1.029,0.619,1.225,0.844
					c0.197,0.225,0.401,0.486,0.823,0.471c0.225-0.007,0.142,0.844-0.084,0.902c-0.226,0.055,0.226,0.266-0.507,0.379
					c-0.731,0.112-1.532-0.232-1.983,0.022c-0.452,0.254-0.031,6.248-0.635,6.832c-0.464,0.449-0.798,0.452-0.927-0.028
					c-0.444-1.655,0.787-6.189,0-6.474c-0.507-0.184-3.419,3.005-3.885,1.653c-0.351-1.02-0.094-1.384,1.014-1.795
					c1.139-0.422,1.856-0.844,2.786-2.51c0.575-1.036-0.352-0.937-0.465-0.993c-0.113-0.056-2.773,1.04-2.913,0.422
					c-0.015-0.063-0.012-0.137-0.008-0.211c-0.072,0.111-0.138,0.193-0.176,0.199c-0.191,0.028-0.271-0.035-0.445,0.022
					c-0.182,0.059-0.003,0.276-0.126,0.379c-0.208,0.175-0.612-0.232-0.549,0.633c0.036,0.489,0.198,0.183,0.264,0.417
					c0.298,1.06-0.315,0.029-0.643,0.132c-0.248,0.079-0.206,0.548-0.147,0.782c0.032,0.13,0.279,0.091,0.298,0.203
					c0.032,0.185,0.039,0.337-0.004,0.43c-0.295,0.654-0.379,0.295-0.78,0.042c-0.28-0.176-0.419,0.006-0.359,0.486
					c0.022,0.192,0.363,0.026,0.379,0.127c0.048,0.319-0.008,0.461-0.231,0.78C4.08,18.758,3.93,18.841,3.87,19.141
					c-0.006,0.024,0.301,0.233,0.295,0.253c-0.295,0.865-0.362-0.032-0.844,0.443c-0.114,0.112-0.255,0.464-0.148,0.802
					c0.024,0.082,0.212,0.323,0.19,0.422c-0.052,0.23,0.019,0.507-0.144,0.631c-0.805,0.615,0.004,0.394,0.011,0.573
					c0.013,0.303,0.022,0.568-0.057,0.801c-0.169,0.511-0.319,0.784-1.185,0.573c-0.14-0.035-0.366,0.246-0.337,0.422
					c0.168,1.055,0.347,0.499,0.83,0.92c0.221,0.19,0.235,0.411-0.28,0.66c0,0-0.654-0.211-0.866,0.487
					c-0.231,0.766,1.289-0.549,0.275,2.11c-0.262,0.688-0.717,0.549-0.844,1.71c-0.004,0.043,0.064,0.338,0.104,0.34
					c0.984,0.048,0.376,0.674,0.551,0.925c0.181,0.264,0.222,0.613,0.106,0.761c-0.602,0.764,0.171,1.107,0.422,1.33
					c0.06,0.051-0.043,0.497-0.068,0.571c-0.077,0.218-0.413,0.501-0.27,0.674c0.024,0.031,0.271,0.047,0.316,0.149
					c0.095,0.208,0.212,0.415,0.19,0.506c-0.084,0.362,0.13-0.249-0.292-0.206c-0.3,0.029-0.583-0.161-0.449,0.394
					c0.139,0.591,0.169,0.282,0.404,0.15c0.121-0.067-0.213,1.048-0.016,1.225c0.413,0.37,0.441,0.652,0.58,1.34
					c0.156,0.765,0.317,1.794,0.296,2.744c-0.034,1.519-0.085,2.406,0.194,2.943c0,0,0.605,0.773,0.819,0.899
					c0.469,0.275,0.947,0.24,2.369,1.909c0.077,0.09,0.3-0.068,0.401,0c0.08,0.053,0.02,0.358-0.272,0.366
					c-0.253,0.007-0.131,0.49-0.044,0.54c0.121,0.072,0.164,0.017,0.294,0.087c0.087,0.043,0.107-0.36,0.38-0.382
					c0.162-0.012,0.245,0.295,0.38,0.316c0.511,0.082,0.749-0.187,1.499-0.022c0.151,0.035,0.844-0.165,0.816-0.014
					c-0.044,0.244-0.116,0.535,0.049,0.459c0.226-0.104,0.085-0.441,0.507-0.38c0.295,0.042,0.277,0.287,0.317,0.295
					c0.098,0.023,0.695-0.226,0.723-0.139c0.069,0.235-0.017,0.614,0.247,0.667c0.158,0.031-0.042,0.364,0.085,0.381
					c0.393,0.045,0.58-0.019,0.823-0.043c0.022-0.003,0.19-0.401,0.126-0.549c-0.095-0.22,0.527-0.098,0.549-0.083
					c0.308,0.213,0.164,0.163,0.738-0.044c0.284-0.101,0.594-0.131,0.696,0.127c0.017,0.043-0.499,0.096-0.483,0.18
					c0.053,0.272,0.122,0.669,0.294,0.644c0.187-0.028,0.238,0.185,0.379,0.148c0,0,0.233-0.042,0.297-0.444
					c0.015-0.097,0.401-0.036,0.464-0.084c0.126-0.096-0.133-0.583,0.212-0.571c0.175,0.007,0.353,0.106,0.442,0.065
					c0.257-0.118,0.025-0.322,0.32-0.335c0.247-0.011,0.504,0.028,0.756,0.143c0.206,0.094,0.022,0.318,0.444,0.064
					c0.039-0.023,0.123,0.455,0.168,0.464c0.256,0.055,0.048-0.062,0.318-0.042c0.101,0.007,0.141-0.066,0.253-0.064
					c0.199,0.005,0.211,0.296,0.507,0.358c0.068,0.015,0.371-0.424,0.443-0.422c0.12,0.004,0.599,0.036,0.717,0.043
					c0.464,0.025,0.379,0.058,0.907-0.021c0.329-0.048,0.769,0.115,1.035,0.084c0.095-0.01,0.263-0.374,0.337-0.374
					c0.398-0.006,0.567,0.106,0.887,0.141c0.273,0.031,0.454-0.118,0.528-0.252c0.116-0.214,0.254-0.316,1.204-0.106
					c0.055,0.012,0.007,0.264,0.064,0.295c0.229,0.127,0.391-0.223,0.372-0.106c-0.03,0.187-0.193,0.331,0.092,0.338
					c0.096,0.003,1.444,0.221,1.422-0.045c-0.033-0.391-0.11-0.875,0.013-0.863c0.404,0.04,0.335,0.123,0.613-0.189
					c0.128-0.146,0.237-0.092,0.317-0.359c0.093-0.318-0.803-0.222-0.611-0.612c0.061-0.127,0.304,0.032,0.337-0.062
					c0.085-0.248-0.105-0.386,0-0.549c0.108-0.168,0.257-0.089,0.401-0.106c0.217-0.029,0.515,0.386,0.611,0.211
					c0.086-0.156-0.119-1.313-0.042-1.457c0.08-0.152,0.282-0.19,0.338-0.338c0.061-0.167,0.286,0.112,0.295-0.085
					c0.01-0.198-0.091-0.615,0.189-0.633l0.086-0.95c-0.025-0.029,0.274-0.273,0.308-0.59c0.029-0.265-0.718-0.032-0.729-0.072
					c-0.087-0.331-0.201-0.369,0.224-0.562c0.309-0.14,0.506-0.394,0.506-0.732c0-1.41-0.449-0.247-0.817-1.146
					C28.499,38.563,30.719,39.426,29.325,37.779z M15.811,11.322c0.068-0.612,0.316-0.296,1.33-0.507
					c1.919-0.4,4.411-0.147,5.424-0.253c1.014-0.106,1.837,0.38,1.837,0.38s0.148,0.864-0.38,1.54
					c-0.527,0.676-0.168,1.879-0.929,2.195c-0.76,0.317-2.243-0.027-4.327,0.231c-1.689,0.212-3.293,0.803-3.145,0.106
					C15.65,14.878,15.727,12.082,15.811,11.322z M14.123,22.172c0.674-0.621,0.59-1.849,0.823-3.526
					c0.16-1.174,0.03-1.49,0.247-1.848c0.199-0.326,0.431-0.469,0.639-0.496c0.486-0.063,7.122-0.113,8.169-0.357
					c0.568-0.135,0.801-0.402,0.801-0.402s0.267,0.083,0.36,0.191c0.143,0.167,0.119,0.484-0.022,1.329
					c-0.464,2.807,0.014,4.594,0.24,4.707c0.223,0.113,0.225,0.675-0.049,1.203c-0.339,0.652-1.182,0.76-2.518,0.3
					c-0.222-0.078-0.461-0.112-0.698-0.151c-1.351-0.226-6.17-0.029-6.791,0.253c-0.619,0.282-1.746,0.69-2.026,0.296
					C13.019,23.276,13.448,22.791,14.123,22.172z M21.636,44.842c-0.958,0.427-2.604-1.942-2.681-2.153
					c-0.21-0.591-0.717-1.605-0.949-1.963c-0.232-0.359-0.181-1.14,0.275-1.14c0.295,0,1.157,0.617,1.157,0.617
					s3.152,0.899,4.71,2.273C25.139,43.351,22.819,44.313,21.636,44.842z M27.441,35.11c-1.087,1.088-0.83,2.039-1.794,2.829
					c-0.823,0.675-3.145,0.062-3.736-0.316c-0.591-0.381-4.866-0.297-5.551-0.36c-0.233-0.021-0.591,0.338-0.591,0.738
					c0,0.359,0.717,7.071,0.358,8.169c-0.365,1.122-1.857,0.633-2.026,0.591c-0.169-0.042,0.152-8.001,0.212-9.055
					c0.02-0.38-0.423-0.189-0.993-0.106c-0.152,0.021-0.816,0.202-0.951,0.274c-2.132,1.14-5.972,2.047-6.522,1.794
					c-0.549-0.253-0.739-3.166,0.063-3.082c0.948,0.101,6.227-0.653,7.155-0.801c0.701-0.113,0.74-0.465,0.76-0.677
					c0.046-0.464,0.021-2.722-0.169-3.862c-0.118-0.703-0.08-0.39-0.27-0.813c-0.09-0.199-0.231-0.801-0.067-0.981
					c0.464-0.507,0.675-0.254,1.666,0.084c1.211,0.411,1.313,1.911,1.44,1.869c0,0,5.693,0.035,6.396,0.147
					c0.335,0.053,1.879,1.098,1.055,1.562c-0.478,0.269-6.588,0.346-7.011,0.306c-0.424-0.043-0.76,0.379-0.803,1.139
					c-0.042,0.76,0.466,0.507,0.762,0.633c0.295,0.127,5.128,0.127,6.395,0.085c0.717-0.023,1.394-0.02,2.258-0.19
					c0.56-0.107,1.138,0.03,1.224-0.084C27.061,34.541,27.568,34.983,27.441,35.11z"/>
				<path id="XMLID_187_" fill="#D70C18" d="M8.479,8.397l-0.773,1.11c0,0.224,0.053,0.379,0.126,0.498
					c0.02,0.003,0.039-0.007,0.061-0.004C7.943,10.013,8.389,8.908,8.479,8.397z"/>
				<path id="XMLID_183_" fill="#D70C18" d="M25.909,9.327c0.096-0.332,0.055-0.58,0.055-0.58s0.117-0.251-0.087-0.414
					C25.853,8.676,25.876,9.107,25.909,9.327z"/>
				<path id="XMLID_166_" fill="#D70C18" d="M18.111,13.876c0.802-0.317,0.844-0.506,1.964-0.549c1.118-0.042,2.006,0.296,2.068,0
					c0.064-0.295,0.284-0.724,0.275-0.971c-0.021-0.528-1.477-0.422-1.477-0.422s-1.795,0.275-2.822,0.326
					c-0.07,0.004-0.111,0.074-0.155,0.118c-0.464,0.444-0.843,0.866-0.738,1.139C17.331,13.792,17.31,14.193,18.111,13.876z"/>
				<path id="XMLID_165_" fill="#D70C18" d="M7.273,12.413c-0.193,0.352-0.565,1.088-0.588,1.589
					C6.939,13.613,7.306,12.737,7.273,12.413z"/>
				<path id="XMLID_164_" fill="#D70C18" d="M16.36,19.132c0.196,0.029,2.567,0.099,2.68-0.211c0.113-0.31,0.506-1.204-0.169-1.329
					c-0.497-0.095-1.204,0-1.204,0s-1.356,0.795-1.413,0.991C16.198,18.78,16.163,19.103,16.36,19.132z"/>
				<path id="XMLID_163_" fill="#D70C18" d="M21.609,18.873c0.084-0.057,2.024,0.14,2.167-0.283c0.14-0.422,0.337-1.012-0.029-1.069
					c-0.364-0.057-2.898-0.028-2.898-0.028s-0.338-0.001-0.338,0.562C20.512,18.619,21.525,18.928,21.609,18.873z"/>
				<path id="XMLID_162_" fill="#D70C18" d="M17.775,21.602c0.844-0.444,1.033,0.169,1.308-0.95
					c0.181-0.737-1.773-0.359-1.773-0.359c-0.112,0-1.735,0.412-1.308,1.372C16.255,22.235,17.362,21.818,17.775,21.602z"/>
				<path id="XMLID_161_" fill="#D70C18" d="M23.684,20.378c-0.379-0.042-2.807-0.063-2.807-0.063s-0.358,1.035,0.295,1.414
					c0.654,0.379,2.596,0.127,2.596,0.021C23.769,21.643,24.064,20.419,23.684,20.378z"/>
			</g>
		</g>
	</g>
	<g id="XMLID_145_">
		<path id="XMLID_150_" fill="#333333" d="M50.957,31.621c-0.087-0.519-0.304-1.384-0.649-2.597
			c-0.26-0.692-0.434-1.211-0.519-1.558c3.201-2.597,5.538-5.496,7.011-8.699h-6.362v-3.376h5.323
			c-0.26-0.432-0.694-1.081-1.298-1.948c-0.694-1.124-1.213-1.947-1.558-2.467l2.986-1.688c1.124,1.732,2.207,3.246,3.246,4.544
			l-2.856,1.558h4.025v3.505c-0.779,1.558-1.558,2.986-2.337,4.285c1.471,1.126,2.639,2.077,3.506,2.856v-0.519h18.956V40.58h-3.635
			v-1.558H65.109v1.558h-3.635V27.207l-1.558,2.077c-0.694-0.779-1.428-1.558-2.207-2.337V40.45h-3.506V28.376
			c-0.26,0.26-0.606,0.606-1.039,1.039C52.817,29.761,52.081,30.498,50.957,31.621z M60.824,13.834v-2.986h20.254v2.986H60.824z
			 M62.772,23.702v-8.05h16.229v8.05H62.772z M65.109,28.246v2.856h4.155v-2.856H65.109z M65.109,33.569v2.986h4.155v-2.986H65.109z
			 M66.407,18.379v2.597h8.958v-2.597H66.407z M76.794,28.246h-4.285v2.856h4.285V28.246z M72.509,33.569v2.986h4.285v-2.986H72.509
			z"/>
		<path id="XMLID_146_" fill="#333333" d="M86.074,25.26v-3.635h11.555V9.55h4.155v4.155h12.724v3.506h-12.724v4.414h15.45v3.635
			H86.074z M97.629,40.71V26.169h4.155V40.71H97.629z M113.08,36.815c-0.52-0.26-1.343-0.692-2.467-1.298
			c-4.155-2.509-7.098-4.197-8.829-5.063l2.077-3.116c1.731,0.866,4.544,2.381,8.439,4.544c1.384,0.694,2.38,1.213,2.986,1.558
			L113.08,36.815z"/>
	</g>
</g>
</svg>
