<?xml version="1.0" encoding="utf-8"?>
<!-- Generator: Adobe Illustrator 17.0.0, SVG Export Plug-In . SVG Version: 6.00 Build 0)  -->
<!DOCTYPE svg PUBLIC "-//W3C//DTD SVG 1.1//EN" "http://www.w3.org/Graphics/SVG/1.1/DTD/svg11.dtd">
<svg width="100%" height="100%" viewBox="0 0 50 38" preserveAspectRatio="none"
version="1.1" id="图层_1" xmlns="http://www.w3.org/2000/svg" xmlns:xlink="http://www.w3.org/1999/xlink"  enable-background="new 0 0 50 38" xml:space="preserve">
<g>
	<path d="M38.264,24.733l-2.122,2.121l-6.01-6.01l-6.01,6.01L22,24.733l6.011-6.01L22,12.712l2.122-2.121l6.01,6.01l6.01-6.01
		l2.122,2.121l-6.011,6.01L38.264,24.733z"/>
	<path fill="none" stroke="#000000" stroke-width="2" stroke-miterlimit="10" d="M40.086,2.723H20.985
		c-1.856,0-3.637,0.738-4.95,2.05L3.5,17.308c-0.781,0.781-0.781,2.047,0,2.828l12.536,12.536c1.313,1.313,3.093,2.05,4.95,2.05
		h19.101c3.866,0,7-3.134,7-7v-18C47.086,5.857,43.952,2.723,40.086,2.723z"/>
</g>
</svg>
