<?xml version="1.0" encoding="utf-8"?>
<!-- Generator: Adobe Illustrator 17.0.0, SVG Export Plug-In . SVG Version: 6.00 Build 0)  -->
<!DOCTYPE svg PUBLIC "-//W3C//DTD SVG 1.1//EN" "http://www.w3.org/Graphics/SVG/1.1/DTD/svg11.dtd">
<svg width="100%" height="100%" viewBox="0 0 46 76" preserveAspectRatio="none"
version="1.1" id="图层_1" xmlns="http://www.w3.org/2000/svg" xmlns:xlink="http://www.w3.org/1999/xlink"  enable-background="new 0 0 46 76" xml:space="preserve">
<g>
	<g id="XMLID_48_">
		<path id="XMLID_65_" fill="#FFFFFF" d="M38.808,10.151c0,0,1.233,0.707,1.106,3.43c-0.127,2.722,0.917,25.517,0.917,25.517v12.045
			l2.154,2.526l-1.097,5.181l-3.08,9.584L29.05,72.45l-7.601,0.451l-8.092-2.008l-8.875-7.836l1.109-16.967L8.136,25.24l0.848-3.641
			l0.397-0.895l1.617-4.142l0.302-2.752l1.207-2.688l4.242-1.165L38.808,10.151z"/>
		<g id="XMLID_49_">
			<path id="XMLID_64_" fill="#D70C18" d="M41.888,21.583c-0.072,0-0.096,0.004-0.139,0.004
				C41.797,21.617,41.888,21.583,41.888,21.583z"/>
			<path id="XMLID_58_" fill="#D70C18" d="M45.266,58.099c0,0-0.601-0.264-0.535-0.595c0.458-2.271-0.402-1.528-1.305-3.055
				c-0.144-0.245,0.777-0.573,0.771-0.931c-0.004-0.064-0.395-0.316-0.57-0.727c-0.268-0.634,0.332-0.508,0.769-1.196
				c0.238-0.371,0.484-0.276,0.702-0.566c0.28-0.37,0.266-0.956,0.336-1.262c0.172-0.76-0.891-0.3-1.237-0.3
				c-0.643,0,0.568-1.293-0.336-0.961c-0.164,0.06-0.671-0.038-0.902-0.098c-0.192-0.053-0.417-0.558-0.671-0.6
				c-0.6-0.098,0.529-0.592,0.538-0.729c0.165-4.051,1.934-2.257,1.07-5.08c-0.158-0.515,0.68-0.429,0.701-0.83
				c0.178-3.01-1.036-0.632-2.107-1.559c-0.458-0.399-0.502-0.6-0.032-0.765c0.469-0.162,0.75-0.273,0.958-0.363
				c0.235,0.03,0.503-0.004,0.648-0.268c0.104-0.191,0.454-1.133,0-1.096c-0.801,0.066-0.854-0.424-0.536-0.632
				c0.223-0.144-0.355,0.102-0.701-0.098c-0.128-0.071,0.114-0.358-0.034-0.432c-0.31-0.156-0.409-0.111-0.334-0.663
				c0.057-0.404-0.249-1.595-0.133-2.059c0.139-0.56,0.238-0.287,0.268-0.73c0.013-0.222-0.514-0.086-0.501-0.266
				c0.013-0.19-0.148-0.93,0.369-1.005c0.398-0.056,0.441-0.573,0.264-0.622c0,0-0.519,0.096-0.769-0.432
				c-0.104-0.222-0.086-0.377-0.168-0.63c-0.268-0.828-0.534-1.759,0.37-2.059c0.534-0.177,0.41-0.586,0.233-1.028
				c-0.169-0.42-0.089-0.437-0.201-0.632c-0.09-0.153-0.698-0.341-0.67-0.431c0.099-0.298-0.359-0.394-0.135-0.532
				c0.5-0.302,0.768-0.087,0.837-0.132c0.399-0.264,0.212-0.517,0.201-0.63c-0.019-0.207-0.96-0.185-1.104-0.4
				c-0.169-0.249-0.351-1.289,0.035-1.493c0.295-0.154,0.298,0.196,0.669,0.199c0.625,0.008,0.804,0.299,0.804-0.332
				c0-0.246-1.576-0.461-1.076-0.493c-0.03-0.017-0.047-0.057,0.005-0.172c0.273-0.598,0.33-1.601,0.033-1.659
				c-0.502-0.1-1.028-0.779-0.671-1.096c0.122-0.106,0.502-0.134,0.637-0.298c0.534-0.666,0.11-1.838-0.335-1.927
				c-1.085-0.215-0.361-1.218-0.602-1.759c-0.107-0.236,0-1.161-0.903-1.095c-0.02,0-0.042-0.098-0.063-0.231
				c-0.078,0.27-0.198,0.564-0.448,0.879c-0.736,0.932-1.599,0.524-5.05-0.63c-0.538-0.179-1.015-0.407-1.477-0.423
				c-7.422-0.24-5.081,0.656-7.289,0.955c-2.622,0.355-2.643,0.064-2.61-1.86c0.028-1.708,1.406-0.497,2.778-0.366
				c1.668,0.163,0.467-0.098,3.779-0.597c3.312-0.498,6.959,0.366,9.201,0.266c0.582-0.026,0.896,0.076,1.066,0.213
				c0.032-0.458,0.114-0.801,0.281-0.696c0.534,0.332,0.861-0.698,0.502-0.698c-0.669,0-0.669-0.864,0.167-0.83
				c0.548,0.02,0.266-0.23,0.367-1.129c0.059-0.527,0.637-0.696,0.069-1.493c-0.156-0.217-0.017-0.864-0.368-0.864
				c-0.272,0-0.574-0.049-0.711,0.123c-0.191,0.243-0.036,0.264-0.36,0.675c-0.289,0.37-1.038,0.393-1.471,0.23
				c-1.071-0.396,0.4-1.66-0.67-1.66c-0.842,0-1.605-0.695-3.913-3.086c-0.243-0.251-0.401-0.096-0.972-0.298
				c-0.456-0.164-0.623-0.598-0.903-0.665c-0.338-0.08-0.969,0.04-1.17-0.198c-0.198-0.23-0.407-0.49-0.268-0.729
				c0.401-0.689-0.692-0.535-1.104-0.068c-0.074,0.083-0.574,0.068-0.686,0.139c-0.278,0.17-0.333,0.275-0.721,0.592
				c-0.171,0.14-0.695,0.034-1.271,0.132c-0.196,0.034-0.35,0.564-0.568,0.565c-0.521,0.004-0.692-0.562-0.801-0.467
				c-0.199,0.17-0.51-0.06-0.537,0.467c-0.019,0.364-0.433,0.679-0.937,0.73c-0.41,0.04-0.9-0.164-1.103-0.101
				c-0.73,0.234-0.202,1.126-1.004,0.764c-0.234-0.104,0.427-0.888,0.133-0.997c-2.208-0.797-1.471,1.131-1.471,1.131
				s-0.869,0.498-0.537,1.525c0.064,0.2-0.449-0.019-0.534,0.2c-0.624,1.593,0.401,0.42-0.937,1.394
				c-1.784,1.301-1.339-1.758-3.012-0.532c-0.573,0.422-0.52,0.464-0.7,0.798c-0.206,0.377,0.546,1.003-0.169,1.13
				c-0.301,0.053-1.259-0.067-1.772-0.067c-0.559,0.003-0.254,0.622-0.636,0.663c-0.677,0.075-0.652,0.017-0.871,0.199
				C10.866,8.9,10.771,9.21,11.04,9.598c0.145,0.207,1.439-0.068,1.741-0.034c1.051,0.117,1.21,0.973,0.168,1.03
				c-0.327,0.017-0.963-0.185-1.606-0.134c-1.671,0.134-0.748-0.278-1.372,1.227c-0.287,0.697,0.706,0.216,2.176-0.199
				c0.114-0.031,0.125,0.135,0.078,0.4l0.314-0.446c0,0,1.183-0.038,2.877-0.599c0.904-0.298,1.641-0.564,3.913,0.234
				c2.066,0.722,3.012,0.598,2.911,1.327c-0.056,0.417-0.592,1.265-3.01,1.959c-2.542,0.73-5.989,0.83-6.19,0.696
				c-0.278-0.181-1.391,0.098-1.841-0.642c-0.287-0.023-0.561,0.076-0.625,0.259c-0.19,0.537,0.279,1.627-0.369,1.393
				C9.885,15.956,9,16.735,9.937,17.067c0.332,0.118-0.183,1.002,0.201,0.93c0.118-0.023,0.164,0.072,0.176,0.207
				c0.11-0.196,0.184-0.323,0.184-0.323s1.161,0.021,2.409-0.632c1.271-0.664,2.252-0.784,3.111-0.863
				c0.737-0.064,3.28-0.042,4.217,0.135c0.937,0.175,2.063-0.135,2.107,0.397c0.044,0.531-0.502,1.349-0.992,1.927
				c-0.49,0.574-2.062,1.029-2.288,1.029c-0.223,0-1.047,1.107-0.87,1.593c0.18,0.486,1.63,0.973,1.942,1.328
				c0.312,0.353,0.635,0.764,1.304,0.741c0.357-0.011,0.226,1.328-0.133,1.418c-0.358,0.087,0.359,0.419-0.803,0.596
				c-1.159,0.177-2.428-0.366-3.143,0.034c-0.716,0.399-0.05,9.827-1.006,10.746c-0.735,0.707-1.265,0.71-1.47-0.043
				c-0.704-2.603,1.248-9.734,0-10.183c-0.804-0.289-5.42,4.726-6.157,2.6c-0.557-1.604-0.148-2.177,1.607-2.822
				c1.805-0.664,2.942-1.328,4.416-3.948c0.912-1.629-0.558-1.474-0.737-1.561c-0.179-0.089-4.395,1.636-4.616,0.664
				c-0.024-0.098-0.019-0.215-0.012-0.332c-0.114,0.174-0.218,0.304-0.28,0.313c-0.303,0.043-0.429-0.055-0.705,0.034
				c-0.289,0.093-0.004,0.433-0.2,0.595c-0.329,0.275-0.971-0.366-0.87,0.996c0.057,0.769,0.313,0.288,0.418,0.656
				c0.473,1.667-0.499,0.046-1.02,0.207c-0.394,0.124-0.327,0.862-0.234,1.23c0.051,0.204,0.442,0.144,0.473,0.319
				c0.051,0.291,0.062,0.53-0.006,0.677c-0.467,1.029-0.601,0.464-1.237,0.066c-0.443-0.277-0.665,0.01-0.568,0.764
				c0.035,0.301,0.576,0.041,0.601,0.2c0.076,0.502-0.013,0.726-0.367,1.227c-0.135,0.195-0.373,0.325-0.467,0.798
				c-0.01,0.038,0.476,0.366,0.467,0.398c-0.467,1.361-0.574-0.051-1.337,0.697c-0.181,0.176-0.404,0.73-0.235,1.262
				c0.038,0.129,0.336,0.508,0.3,0.664c-0.083,0.362,0.03,0.798-0.228,0.992c-1.277,0.967,0.006,0.62,0.017,0.901
				c0.021,0.476,0.035,0.894-0.09,1.26c-0.267,0.803-0.505,1.233-1.878,0.901c-0.222-0.055-0.581,0.386-0.534,0.663
				c0.266,1.66,0.55,0.785,1.315,1.447c0.35,0.299,0.373,0.646-0.445,1.038c0,0-1.036-0.332-1.373,0.766
				c-0.366,1.205,2.044-0.864,0.436,3.319C0.923,44.176,0.202,43.957,0,45.782c-0.007,0.068,0.101,0.532,0.164,0.535
				c1.56,0.075,0.596,1.06,0.874,1.455c0.287,0.415,0.351,0.964,0.168,1.197c-0.954,1.201,0.272,1.741,0.669,2.092
				c0.095,0.08-0.068,0.782-0.108,0.898c-0.122,0.343-0.654,0.788-0.428,1.06c0.038,0.049,0.429,0.073,0.501,0.234
				c0.151,0.327,0.336,0.652,0.302,0.795c-0.133,0.57,0.205-0.392-0.463-0.324c-0.475,0.045-0.924-0.253-0.712,0.62
				c0.22,0.93,0.267,0.443,0.64,0.236c0.192-0.106-0.338,1.648-0.025,1.927c0.654,0.581,0.699,1.026,0.92,2.108
				c0.247,1.203,0.502,2.821,0.469,4.316c-0.053,2.389-0.135,3.785,0.308,4.629c0,0,0.96,1.216,1.298,1.414
				c0.743,0.432,1.501,0.377,3.755,3.002c0.122,0.142,0.475-0.107,0.636,0C9.095,72.059,9,72.54,8.536,72.552
				c-0.402,0.011-0.208,0.771-0.07,0.85c0.191,0.113,0.26,0.026,0.467,0.136c0.137,0.067,0.17-0.566,0.603-0.6
				c0.257-0.019,0.388,0.464,0.602,0.498c0.81,0.128,1.186-0.294,2.376-0.034c0.239,0.055,1.338-0.26,1.294-0.022
				c-0.069,0.384-0.184,0.841,0.078,0.722c0.359-0.164,0.135-0.694,0.804-0.598c0.467,0.066,0.439,0.451,0.502,0.464
				c0.156,0.035,1.102-0.355,1.146-0.219c0.11,0.37-0.027,0.966,0.391,1.049c0.25,0.048-0.067,0.573,0.135,0.599
				c0.623,0.071,0.92-0.03,1.305-0.068c0.035-0.004,0.301-0.63,0.2-0.864c-0.15-0.347,0.836-0.155,0.871-0.131
				c0.488,0.335,0.259,0.256,1.17-0.069c0.45-0.159,0.941-0.206,1.104,0.2c0.027,0.068-0.791,0.151-0.765,0.283
				c0.085,0.429,0.194,1.052,0.466,1.012c0.296-0.043,0.378,0.291,0.6,0.232c0,0,0.369-0.066,0.47-0.698
				c0.024-0.152,0.635-0.056,0.735-0.131c0.2-0.151-0.211-0.917,0.336-0.898c0.277,0.011,0.559,0.166,0.701,0.102
				c0.408-0.185,0.039-0.506,0.507-0.526c0.392-0.018,0.799,0.045,1.199,0.225c0.327,0.148,0.035,0.501,0.704,0.1
				c0.061-0.036,0.195,0.715,0.266,0.73c0.406,0.086,0.076-0.098,0.504-0.066c0.16,0.011,0.224-0.104,0.401-0.1
				c0.316,0.008,0.334,0.466,0.804,0.564c0.108,0.023,0.589-0.667,0.703-0.664c0.191,0.006,0.949,0.056,1.137,0.068
				c0.735,0.04,0.6,0.091,1.438-0.033c0.521-0.076,1.218,0.18,1.64,0.132c0.151-0.015,0.417-0.588,0.535-0.588
				c0.631-0.009,0.899,0.167,1.406,0.222c0.433,0.049,0.72-0.185,0.836-0.396c0.184-0.336,0.403-0.498,1.908-0.166
				c0.087,0.019,0.012,0.415,0.101,0.465c0.363,0.199,0.62-0.351,0.589-0.167c-0.047,0.294-0.306,0.52,0.146,0.532
				c0.152,0.004,2.289,0.347,2.254-0.071c-0.053-0.615-0.174-1.377,0.021-1.358c0.641,0.064,0.531,0.194,0.971-0.298
				c0.203-0.23,0.375-0.145,0.502-0.564c0.147-0.5-1.272-0.349-0.969-0.963c0.096-0.2,0.482,0.051,0.534-0.098
				c0.134-0.391-0.166-0.607,0-0.864c0.171-0.263,0.408-0.14,0.636-0.166c0.343-0.045,0.816,0.607,0.969,0.332
				c0.137-0.245-0.188-2.065-0.067-2.291c0.127-0.239,0.447-0.299,0.536-0.532c0.097-0.263,0.454,0.176,0.467-0.134
				c0.016-0.311-0.144-0.967,0.3-0.995l0.136-1.494c-0.04-0.045,0.435-0.43,0.488-0.928c0.047-0.416-1.139-0.05-1.156-0.113
				c-0.137-0.52-0.319-0.581,0.355-0.884c0.49-0.221,0.802-0.62,0.802-1.152c0-2.218-0.711-0.389-1.295-1.803
				C43.956,59.333,47.475,60.69,45.266,58.099z M23.847,16.487c0.108-0.963,0.5-0.466,2.108-0.797
				c3.042-0.629,6.991-0.232,8.596-0.398c1.608-0.166,2.911,0.598,2.911,0.598s0.234,1.359-0.602,2.423
				c-0.836,1.063-0.266,2.955-1.473,3.452c-1.204,0.498-3.556-0.043-6.858,0.364c-2.677,0.334-5.22,1.263-4.986,0.167
				C23.592,22.08,23.713,17.683,23.847,16.487z M21.171,33.553c1.069-0.977,0.935-2.908,1.305-5.546
				c0.254-1.846,0.048-2.344,0.391-2.906c0.316-0.513,0.683-0.737,1.013-0.78c0.77-0.098,11.287-0.178,12.948-0.562
				c0.9-0.212,1.269-0.632,1.269-0.632s0.424,0.13,0.57,0.3c0.226,0.263,0.188,0.761-0.034,2.091
				c-0.735,4.414,0.022,7.225,0.38,7.403c0.353,0.178,0.357,1.061-0.078,1.892c-0.538,1.025-1.874,1.195-3.991,0.471
				c-0.352-0.123-0.73-0.176-1.106-0.238c-2.142-0.355-9.78-0.046-10.763,0.398c-0.982,0.443-2.767,1.085-3.211,0.466
				C19.421,35.289,20.101,34.525,21.171,33.553z M33.079,69.207c-1.518,0.672-4.127-3.055-4.249-3.387
				c-0.333-0.93-1.136-2.525-1.503-3.087c-0.368-0.565-0.287-1.793,0.435-1.793c0.467,0,1.834,0.971,1.834,0.971
				s4.995,1.414,7.465,3.575C38.631,66.863,34.955,68.375,33.079,69.207z M42.28,53.901c-1.722,1.711-1.315,3.206-2.844,4.45
				c-1.305,1.062-4.985,0.098-5.922-0.497c-0.937-0.599-7.713-0.468-8.798-0.566c-0.37-0.034-0.937,0.532-0.937,1.161
				c0,0.564,1.136,11.122,0.567,12.848c-0.578,1.765-2.943,0.996-3.211,0.93c-0.267-0.066,0.242-12.584,0.337-14.241
				c0.032-0.598-0.671-0.298-1.574-0.166c-0.241,0.034-1.293,0.318-1.507,0.431c-3.379,1.793-9.466,3.219-10.337,2.821
				c-0.87-0.398-1.171-4.98,0.1-4.848c1.502,0.159,9.87-1.027,11.341-1.259c1.112-0.178,1.173-0.732,1.205-1.065
				c0.072-0.729,0.034-4.281-0.268-6.074c-0.187-1.105-0.127-0.613-0.428-1.279c-0.143-0.313-0.367-1.26-0.107-1.543
				c0.736-0.797,1.07-0.4,2.641,0.133c1.92,0.647,2.082,3.006,2.283,2.94c0,0,9.023,0.055,10.137,0.232
				c0.531,0.083,2.978,1.727,1.672,2.457c-0.758,0.424-10.443,0.545-11.112,0.481c-0.671-0.067-1.205,0.596-1.273,1.791
				c-0.066,1.196,0.738,0.797,1.207,0.996c0.468,0.2,8.128,0.2,10.135,0.134c1.136-0.036,2.209-0.032,3.58-0.3
				c0.888-0.169,1.804,0.047,1.94-0.132C41.677,53.006,42.481,53.702,42.28,53.901z"/>
			<path id="XMLID_57_" fill="#D70C18" d="M12.225,11.887l-1.225,1.746c0,0.353,0.083,0.596,0.199,0.784
				c0.032,0.004,0.062-0.012,0.097-0.006C11.376,14.429,12.082,12.69,12.225,11.887z"/>
			<path id="XMLID_56_" fill="#D70C18" d="M39.851,13.35c0.152-0.522,0.087-0.912,0.087-0.912s0.185-0.394-0.138-0.651
				C39.763,12.325,39.8,13.003,39.851,13.35z"/>
			<path id="XMLID_55_" fill="#D70C18" d="M27.492,20.504c1.271-0.498,1.338-0.796,3.113-0.864c1.772-0.066,3.179,0.465,3.277,0
				c0.101-0.464,0.451-1.139,0.436-1.527c-0.033-0.83-2.341-0.664-2.341-0.664s-2.845,0.432-4.473,0.513
				c-0.11,0.006-0.176,0.117-0.246,0.185c-0.735,0.698-1.337,1.361-1.17,1.791C26.256,20.372,26.221,21.002,27.492,20.504z"/>
			<path id="XMLID_54_" fill="#D70C18" d="M10.313,18.204c-0.307,0.554-0.896,1.711-0.931,2.5
				C9.785,20.09,10.366,18.713,10.313,18.204z"/>
			<path id="XMLID_53_" fill="#D70C18" d="M24.717,28.77c0.311,0.046,4.068,0.155,4.248-0.332c0.179-0.487,0.802-1.893-0.268-2.091
				c-0.788-0.149-1.908,0-1.908,0s-2.149,1.25-2.24,1.559C24.46,28.218,24.405,28.725,24.717,28.77z"/>
			<path id="XMLID_52_" fill="#D70C18" d="M33.036,28.363c0.133-0.09,3.209,0.22,3.434-0.445c0.222-0.664,0.534-1.592-0.046-1.682
				c-0.577-0.089-4.593-0.044-4.593-0.044s-0.535-0.002-0.535,0.884C31.297,27.964,32.902,28.45,33.036,28.363z"/>
			<path id="XMLID_51_" fill="#D70C18" d="M26.959,32.655c1.338-0.698,1.637,0.266,2.073-1.494c0.287-1.159-2.81-0.565-2.81-0.565
				c-0.177,0-2.75,0.649-2.073,2.157C24.55,33.651,26.305,32.995,26.959,32.655z"/>
			<path id="XMLID_50_" fill="#D70C18" d="M36.324,30.73c-0.601-0.066-4.448-0.1-4.448-0.1s-0.567,1.627,0.468,2.224
				c1.037,0.596,4.115,0.2,4.115,0.034C36.459,32.72,36.926,30.795,36.324,30.73z"/>
		</g>
	</g>
</g>
</svg>
